{
  "accessors": [
    {
      "bufferView": 2,
      "componentType": 5126,
      "count": 65532,
      "max": [
        3.2190170288085938,
        7.522858619689941,
        3.6387081146240234
      ],
      "min": [
        0.44371023774147034,
        1.1114275455474854,
        -5.780020713806152
      ],
      "type": "VEC3"
    },
    {
      "bufferView": 2,
      "byteOffset": 786384,
      "componentType": 5126,
      "count": 65532,
      "max": [
        0.9999796152114868,
        0.9999861717224121,
        0.999981164932251
      ],
      "min": [
        -0.999984622001648,
        -0.9999775290489197,
        -0.999932587146759
      ],
      "type": "VEC3"
    },
    {
      "bufferView": 1,
      "componentType": 5126,
      "count": 65532,
      "max": [
        0.9994098544120789,
        0.9989582896232605
      ],
      "min": [
        0.0005369762075133622,
        0.0017473101615905762
      ],
      "type": "VEC2"
    },
    {
      "bufferView": 0,
      "componentType": 5125,
      "count": 285135,
      "type": "SCALAR"
    },
    {
      "bufferView": 2,
      "byteOffset": 1572768,
      "componentType": 5126,
      "count": 65532,
      "max": [
        3.1338250637054443,
        8.095008850097656,
        5.152563571929932
      ],
      "min": [
        -0.7120341062545776,
        0.9801112413406372,
        -5.839781284332275
      ],
      "type": "VEC3"
    },
    {
      "bufferView": 2,
      "byteOffset": 2359152,
      "componentType": 5126,
      "count": 65532,
      "max": [
        0.9999969601631165,
        0.9998014569282532,
        0.9998520016670227
      ],
      "min": [
        -0.9999166131019592,
        -0.9999954700469971,
        -0.9999994039535522
      ],
      "type": "VEC3"
    },
    {
      "bufferView": 1,
      "byteOffset": 524256,
      "componentType": 5126,
      "count": 65532,
      "max": [
        0.9988756775856018,
        0.9989464282989502
      ],
      "min": [
        0.0005282313213683665,
        0.0014076828956604004
      ],
      "type": "VEC2"
    },
    {
      "bufferView": 0,
      "byteOffset": 1140540,
      "componentType": 5125,
      "count": 260427,
      "type": "SCALAR"
    },
    {
      "bufferView": 2,
      "byteOffset": 3145536,
      "componentType": 5126,
      "count": 65532,
      "max": [
        2.5185353755950928,
        10.750410079956055,
        5.080015659332275
      ],
      "min": [
        -2.3355605602264404,
        0.9296705722808838,
        -5.818771839141846
      ],
      "type": "VEC3"
    },
    {
      "bufferView": 2,
      "byteOffset": 3931920,
      "componentType": 5126,
      "count": 65532,
      "max": [
        0.9999969601631165,
        0.999744713306427,
        0.9999176859855652
      ],
      "min": [
        -0.9999139308929443,
        -0.9999862909317017,
        -0.9999920129776001
      ],
      "type": "VEC3"
    },
    {
      "bufferView": 1,
      "byteOffset": 1048512,
      "componentType": 5126,
      "count": 65532,
      "max": [
        0.9990105032920837,
        0.9989467263221741
      ],
      "min": [
        0.0005226057837717235,
        0.001513063907623291
      ],
      "type": "VEC2"
    },
    {
      "bufferView": 0,
      "byteOffset": 2182248,
      "componentType": 5125,
      "count": 264642,
      "type": "SCALAR"
    },
    {
      "bufferView": 2,
      "byteOffset": 4718304,
      "componentType": 5126,
      "count": 65532,
      "max": [
        2.4799723625183105,
        10.750410079956055,
        4.5502705574035645
      ],
      "min": [
        -3.477003574371338,
        0.8376968502998352,
        -6.221127033233643
      ],
      "type": "VEC3"
    },
    {
      "bufferView": 2,
      "byteOffset": 5504688,
      "componentType": 5126,
      "count": 65532,
      "max": [
        0.9999493360519409,
        0.9997966289520264,
        0.9999626278877258
      ],
      "min": [
        -0.9999909996986389,
        -0.9999972581863403,
        -0.9999632835388184
      ],
      "type": "VEC3"
    },
    {
      "bufferView": 1,
      "byteOffset": 1572768,
      "componentType": 5126,
      "count": 65532,
      "max": [
        0.9979142546653748,
        0.9989620447158813
      ],
      "min": [
        0.0005249865353107452,
        0.0016579031944274902
      ],
      "type": "VEC2"
    },
    {
      "bufferView": 0,
      "byteOffset": 3240816,
      "componentType": 5125,
      "count": 284313,
      "type": "SCALAR"
    },
    {
      "bufferView": 2,
      "byteOffset": 6291072,
      "componentType": 5126,
      "count": 65532,
      "max": [
        2.6137285232543945,
        10.750410079956055,
        4.547310829162598
      ],
      "min": [
        -3.9892172813415527,
        0.8353726267814636,
        -6.224508762359619
      ],
      "type": "VEC3"
    },
    {
      "bufferView": 2,
      "byteOffset": 7077456,
      "componentType": 5126,
      "count": 65532,
      "max": [
        0.9999901652336121,
        0.999893844127655,
        0.9999530911445618
      ],
      "min": [
        -0.9999421238899231,
        -0.9999937415122986,
        -0.9999087452888489
      ],
      "type": "VEC3"
    },
    {
      "bufferView": 1,
      "byteOffset": 2097024,
      "componentType": 5126,
      "count": 65532,
      "max": [
        0.9989545941352844,
        0.9989506602287292
      ],
      "min": [
        0.0005280691548250616,
        0.001576840877532959
      ],
      "type": "VEC2"
    },
    {
      "bufferView": 0,
      "byteOffset": 4378068,
      "componentType": 5125,
      "count": 255945,
      "type": "SCALAR"
    },
    {
      "bufferView": 2,
      "byteOffset": 7863840,
      "componentType": 5126,
      "count": 65532,
      "max": [
        3.776087999343872,
        10.750410079956055,
        4.24890661239624
      ],
      "min": [
        -4.8648247718811035,
        1.618682622909546,
        -6.142061710357666
      ],
      "type": "VEC3"
    },
    {
      "bufferView": 2,
      "byteOffset": 8650224,
      "componentType": 5126,
      "count": 65532,
      "max": [
        0.9999608397483826,
        0.9999478459358215,
        0.9999419450759888
      ],
      "min": [
        -0.999984622001648,
        -0.9999868869781494,
        -0.9999410510063171
      ],
      "type": "VEC3"
    },
    {
      "bufferView": 1,
      "byteOffset": 2621280,
      "componentType": 5126,
      "count": 65532,
      "max": [
        0.9994243383407593,
        0.9989566206932068
      ],
      "min": [
        0.0005328297265805304,
        0.0016127228736877441
      ],
      "type": "VEC2"
    },
    {
      "bufferView": 0,
      "byteOffset": 5401848,
      "componentType": 5125,
      "count": 254349,
      "type": "SCALAR"
    },
    {
      "bufferView": 2,
      "byteOffset": 9436608,
      "componentType": 5126,
      "count": 65532,
      "max": [
        2.6550657749176025,
        10.740056037902832,
        5.152563571929932
      ],
      "min": [
        -1.3642714023590088,
        0.8376968502998352,
        -5.657789707183838
      ],
      "type": "VEC3"
    },
    {
      "bufferView": 2,
      "byteOffset": 10222992,
      "componentType": 5126,
      "count": 65532,
      "max": [
        0.9999763369560242,
        0.9999821782112122,
        0.9999839067459106
      ],
      "min": [
        -0.9999139308929443,
        -0.9999677538871765,
        -0.9999930262565613
      ],
      "type": "VEC3"
    },
    {
      "bufferView": 1,
      "byteOffset": 3145536,
      "componentType": 5126,
      "count": 65532,
      "max": [
        0.9995421171188354,
        0.9989608526229858
      ],
      "min": [
        0.0005230007809586823,
        0.0015950202941894531
      ],
      "type": "VEC2"
    },
    {
      "bufferView": 0,
      "byteOffset": 6419244,
      "componentType": 5125,
      "count": 258570,
      "type": "SCALAR"
    },
    {
      "bufferView": 2,
      "byteOffset": 11009376,
      "componentType": 5126,
      "count": 24758,
      "max": [
        2.560525894165039,
        10.750113487243652,
        5.08881950378418
      ],
      "min": [
        -0.414039671421051,
        0.9559792280197144,
        -5.839781284332275
      ],
      "type": "VEC3"
    },
    {
      "bufferView": 2,
      "byteOffset": 11306472,
      "componentType": 5126,
      "count": 24758,
      "max": [
        0.999940812587738,
        0.999607503414154,
        0.9999240040779114
      ],
      "min": [
        -0.9999382495880127,
        -0.9998346567153931,
        -0.9999498128890991
      ],
      "type": "VEC3"
    },
    {
      "bufferView": 1,
      "byteOffset": 3669792,
      "componentType": 5126,
      "count": 24758,
      "max": [
        0.9994493126869202,
        0.9989616274833679
      ],
      "min": [
        0.0005199634470045567,
        0.01104426383972168
      ],
      "type": "VEC2"
    },
    {
      "bufferView": 0,
      "byteOffset": 7453524,
      "componentType": 5125,
      "count": 69663,
      "type": "SCALAR"
    }
  ],
  "asset": {
    "extras": {
      "author": "HoangHiepVu (https://sketchfab.com/HoangHiepVu)",
      "license": "CC-BY-4.0 (http://creativecommons.org/licenses/by/4.0/)",
      "source": "https://sketchfab.com/3d-models/peony-at-home-c95c7a325d6a4fb4977204b87d77c803",
      "title": "Peony at home"
    },
    "generator": "Sketchfab-12.67.0",
    "version": "2.0"
  },
  "bufferViews": [
    {
      "buffer": 0,
      "byteLength": 7732176,
      "name": "floatBufferViews",
      "target": 34963
    },
    {
      "buffer": 0,
      "byteLength": 3867856,
      "byteOffset": 7732176,
      "byteStride": 8,
      "name": "floatBufferViews",
      "target": 34962
    },
    {
      "buffer": 0,
      "byteLength": 11603568,
      "byteOffset": 11600032,
      "byteStride": 12,
      "name": "floatBufferViews",
      "target": 34962
    }
  ],
  "buffers": [
    {
      "byteLength": 23203600,
      "uri": "scene.bin"
    }
  ],
  "extensionsUsed": [
    "KHR_materials_unlit"
  ],
  "images": [
    {
      "uri": "textures/Model_0_baseColor.jpeg"
    }
  ],
  "materials": [
    {
      "doubleSided": true,
      "extensions": {
        "KHR_materials_unlit": {}
      },
      "name": "Model_0",
      "pbrMetallicRoughness": {
        "baseColorTexture": {
          "index": 0
        },
        "metallicFactor": 0.0
      }
    }
  ],
  "meshes": [
    {
      "name": "Object_0",
      "primitives": [
        {
          "attributes": {
            "NORMAL": 1,
            "POSITION": 0,
            "TEXCOORD_0": 2
          },
          "indices": 3,
          "material": 0,
          "mode": 4
        }
      ]
    },
    {
      "name": "Object_1",
      "primitives": [
        {
          "attributes": {
            "NORMAL": 5,
            "POSITION": 4,
            "TEXCOORD_0": 6
          },
          "indices": 7,
          "material": 0,
          "mode": 4
        }
      ]
    },
    {
      "name": "Object_2",
      "primitives": [
        {
          "attributes": {
            "NORMAL": 9,
            "POSITION": 8,
            "TEXCOORD_0": 10
          },
          "indices": 11,
          "material": 0,
          "mode": 4
        }
      ]
    },
    {
      "name": "Object_3",
      "primitives": [
        {
          "attributes": {
            "NORMAL": 13,
            "POSITION": 12,
            "TEXCOORD_0": 14
          },
          "indices": 15,
          "material": 0,
          "mode": 4
        }
      ]
    },
    {
      "name": "Object_4",
      "primitives": [
        {
          "attributes": {
            "NORMAL": 17,
            "POSITION": 16,
            "TEXCOORD_0": 18
          },
          "indices": 19,
          "material": 0,
          "mode": 4
        }
      ]
    },
    {
      "name": "Object_5",
      "primitives": [
        {
          "attributes": {
            "NORMAL": 21,
            "POSITION": 20,
            "TEXCOORD_0": 22
          },
          "indices": 23,
          "material": 0,
          "mode": 4
        }
      ]
    },
    {
      "name": "Object_6",
      "primitives": [
        {
          "attributes": {
            "NORMAL": 25,
            "POSITION": 24,
            "TEXCOORD_0": 26
          },
          "indices": 27,
          "material": 0,
          "mode": 4
        }
      ]
    },
    {
      "name": "Object_7",
      "primitives": [
        {
          "attributes": {
            "NORMAL": 29,
            "POSITION": 28,
            "TEXCOORD_0": 30
          },
          "indices": 31,
          "material": 0,
          "mode": 4
        }
      ]
    }
  ],
  "nodes": [
    {
      "children": [
        1
      ],
      "matrix": [
        1.0,
        0.0,
        0.0,
        0.0,
        0.0,
        -1.0,
        -4.440892098500626e-16,
        0.0,
        0.0,
        4.440892098500626e-16,
        -1.0,
        0.0,
        0.0,
        5.256928443908693,
        -6.328868389129638,
        1.0
      ],
      "name": "Sketchfab_model"
    },
    {
      "children": [
        2,
        3,
        4,
        5,
        6,
        7,
        8,
        9
      ],
      "name": "Model.obj.cleaner.materialmerger.gles"
    },
    {
      "mesh": 0,
      "name": "Object_2"
    },
    {
      "mesh": 1,
      "name": "Object_3"
    },
    {
      "mesh": 2,
      "name": "Object_4"
    },
    {
      "mesh": 3,
      "name": "Object_5"
    },
    {
      "mesh": 4,
      "name": "Object_6"
    },
    {
      "mesh": 5,
      "name": "Object_7"
    },
    {
      "mesh": 6,
      "name": "Object_8"
    },
    {
      "mesh": 7,
      "name": "Object_9"
    }
  ],
  "samplers": [
    {
      "magFilter": 9729,
      "minFilter": 9987,
      "wrapS": 10497,
      "wrapT": 10497
    }
  ],
  "scene": 0,
  "scenes": [
    {
      "name": "Sketchfab_Scene",
      "nodes": [
        0
      ]
    }
  ],
  "textures": [
    {
      "sampler": 0,
      "source": 0
    }
  ]
}
