{"asset":{"generator":"glTF-Transform v2.0.5","version":"2.0","extras":{"author":"HoangHiepVu (https://sketchfab.com/HoangHiepVu)","license":"CC-BY-4.0 (http://creativecommons.org/licenses/by/4.0/)","source":"https://sketchfab.com/3d-models/peony-at-home-c95c7a325d6a4fb4977204b87d77c803","title":"Peony at home"}},"accessors":[{"type":"SCALAR","componentType":5123,"count":285135,"normalized":false,"byteOffset":0,"bufferView":0},{"type":"SCALAR","componentType":5123,"count":260427,"normalized":false,"byteOffset":570270,"bufferView":0},{"type":"SCALAR","componentType":5123,"count":264642,"normalized":false,"byteOffset":1091124,"bufferView":0},{"type":"SCALAR","componentType":5123,"count":284313,"normalized":false,"byteOffset":1620408,"bufferView":0},{"type":"SCALAR","componentType":5123,"count":255945,"normalized":false,"byteOffset":2189034,"bufferView":0},{"type":"SCALAR","componentType":5123,"count":254349,"normalized":false,"byteOffset":2700924,"bufferView":0},{"type":"SCALAR","componentType":5123,"count":258570,"normalized":false,"byteOffset":3209622,"bufferView":0},{"type":"SCALAR","componentType":5123,"count":69663,"normalized":false,"byteOffset":3726762,"bufferView":0},{"type":"VEC3","componentType":5120,"count":65532,"normalized":true,"byteOffset":0,"bufferView":1},{"type":"VEC3","componentType":5122,"count":65532,"max":[9657,22306,32767],"min":[-9657,-22306,-32767],"normalized":true,"byteOffset":0,"bufferView":2},{"type":"VEC2","componentType":5123,"count":65532,"normalized":true,"byteOffset":262128,"bufferView":1},{"type":"VEC3","componentType":5120,"count":65532,"normalized":true,"byteOffset":524256,"bufferView":1},{"type":"VEC3","componentType":5122,"count":65532,"max":[11465,21210,32767],"min":[-11465,-21210,-32767],"normalized":true,"byteOffset":524256,"bufferView":2},{"type":"VEC2","componentType":5123,"count":65532,"normalized":true,"byteOffset":786384,"bufferView":1},{"type":"VEC3","componentType":5120,"count":65532,"normalized":true,"byteOffset":1048512,"bufferView":1},{"type":"VEC3","componentType":5122,"count":65532,"max":[14593,29527,32767],"min":[-14593,-29527,-32767],"normalized":true,"byteOffset":1048512,"bufferView":2},{"type":"VEC2","componentType":5123,"count":65532,"normalized":true,"byteOffset":1310640,"bufferView":1},{"type":"VEC3","componentType":5120,"count":65532,"normalized":true,"byteOffset":1572768,"bufferView":1},{"type":"VEC3","componentType":5122,"count":65532,"max":[18122,30155,32767],"min":[-18122,-30155,-32767],"normalized":true,"byteOffset":1572768,"bufferView":2},{"type":"VEC2","componentType":5123,"count":65532,"normalized":true,"byteOffset":1834896,"bufferView":1},{"type":"VEC3","componentType":5120,"count":65532,"normalized":true,"byteOffset":2097024,"bufferView":1},{"type":"VEC3","componentType":5122,"count":65532,"max":[20086,30159,32767],"min":[-20086,-30159,-32767],"normalized":true,"byteOffset":2097024,"bufferView":2},{"type":"VEC2","componentType":5123,"count":65532,"normalized":true,"byteOffset":2359152,"bufferView":1},{"type":"VEC3","componentType":5120,"count":65532,"normalized":true,"byteOffset":2621280,"bufferView":1},{"type":"VEC3","componentType":5122,"count":65532,"max":[27247,28795,32767],"min":[-27247,-28795,-32767],"normalized":true,"byteOffset":2621280,"bufferView":2},{"type":"VEC2","componentType":5123,"count":65532,"normalized":true,"byteOffset":2883408,"bufferView":1},{"type":"VEC3","componentType":5120,"count":65532,"normalized":true,"byteOffset":3145536,"bufferView":1},{"type":"VEC3","componentType":5122,"count":65532,"max":[12181,30015,32767],"min":[-12181,-30015,-32767],"normalized":true,"byteOffset":3145536,"bufferView":2},{"type":"VEC2","componentType":5123,"count":65532,"normalized":true,"byteOffset":3407664,"bufferView":1},{"type":"VEC3","componentType":5120,"count":24758,"normalized":true,"byteOffset":3669792,"bufferView":1},{"type":"VEC3","componentType":5122,"count":24758,"max":[8917,29367,32767],"min":[-8917,-29367,-32767],"normalized":true,"byteOffset":3669792,"bufferView":2},{"type":"VEC2","componentType":5123,"count":24758,"normalized":true,"byteOffset":3768824,"bufferView":1}],"bufferViews":[{"buffer":1,"byteOffset":0,"byteLength":3866088,"target":34963,"extensions":{"EXT_meshopt_compression":{"buffer":0,"byteOffset":0,"byteLength":713307,"mode":"TRIANGLES","byteStride":2,"count":1933044}}},{"buffer":1,"byteOffset":3866088,"byteLength":3867856,"target":34962,"byteStride":4,"extensions":{"EXT_meshopt_compression":{"buffer":0,"byteOffset":713308,"byteLength":2705703,"mode":"ATTRIBUTES","byteStride":4,"count":966964}}},{"buffer":1,"byteOffset":7733944,"byteLength":3867856,"target":34962,"byteStride":8,"extensions":{"EXT_meshopt_compression":{"buffer":0,"byteOffset":3419012,"byteLength":1958747,"mode":"ATTRIBUTES","byteStride":8,"count":483482}}}],"samplers":[{"magFilter":9729,"minFilter":9987,"wrapS":10497,"wrapT":10497}],"textures":[{"source":0,"sampler":0}],"images":[{"mimeType":"image/jpeg","uri":"textures/Model_0_baseColor.jpeg"}],"buffers":[{"uri":"scene.bin","byteLength":5377760},{"byteLength":11601800,"extensions":{"EXT_meshopt_compression":{"fallback":true}}}],"materials":[{"name":"Model_0","doubleSided":true,"pbrMetallicRoughness":{"metallicFactor":0,"baseColorTexture":{"index":0}},"extensions":{"KHR_materials_unlit":{}}}],"meshes":[{"name":"Object_0","primitives":[{"attributes":{"NORMAL":8,"POSITION":9,"TEXCOORD_0":10},"mode":4,"material":0,"indices":0}]},{"name":"Object_1","primitives":[{"attributes":{"NORMAL":11,"POSITION":12,"TEXCOORD_0":13},"mode":4,"material":0,"indices":1}]},{"name":"Object_2","primitives":[{"attributes":{"NORMAL":14,"POSITION":15,"TEXCOORD_0":16},"mode":4,"material":0,"indices":2}]},{"name":"Object_3","primitives":[{"attributes":{"NORMAL":17,"POSITION":18,"TEXCOORD_0":19},"mode":4,"material":0,"indices":3}]},{"name":"Object_4","primitives":[{"attributes":{"NORMAL":20,"POSITION":21,"TEXCOORD_0":22},"mode":4,"material":0,"indices":4}]},{"name":"Object_5","primitives":[{"attributes":{"NORMAL":23,"POSITION":24,"TEXCOORD_0":25},"mode":4,"material":0,"indices":5}]},{"name":"Object_6","primitives":[{"attributes":{"NORMAL":26,"POSITION":27,"TEXCOORD_0":28},"mode":4,"material":0,"indices":6}]},{"name":"Object_7","primitives":[{"attributes":{"NORMAL":29,"POSITION":30,"TEXCOORD_0":31},"mode":4,"material":0,"indices":7}]}],"nodes":[{"name":"Sketchfab_model","translation":[0,5.256928443908693,-6.328868389129638],"rotation":[1,0,0,-2.220446049250313e-16],"children":[1]},{"name":"Model.obj.cleaner.materialmerger.gles","children":[2,3,4,5,6,7,8,9]},{"name":"Object_2","translation":[1.831363633275032,4.317143082618713,-1.0706562995910645],"scale":[4.709364414215088,4.709364414215088,4.709364414215088],"mesh":0},{"name":"Object_3","translation":[1.2108954787254333,4.537560045719147,-0.3436088562011719],"scale":[5.4961724281311035,5.4961724281311035,5.4961724281311035],"mesh":1},{"name":"Object_4","translation":[0.09148740768432617,5.840040326118469,-0.36937808990478516],"scale":[5.4493937492370605,5.4493937492370605,5.4493937492370605],"mesh":2},{"name":"Object_5","translation":[-0.49851560592651367,5.794053465127945,-0.8354282379150391],"scale":[5.3856987953186035,5.3856987953186035,5.3856987953186035],"mesh":3},{"name":"Object_6","translation":[-0.6877443790435791,5.792891353368759,-0.8385989665985107],"scale":[5.385909795761108,5.385909795761108,5.385909795761108],"mesh":4},{"name":"Object_7","translation":[-0.5443683862686157,6.1845463514328,-0.9465775489807129],"scale":[5.195484161376953,5.195484161376953,5.195484161376953],"mesh":5},{"name":"Object_8","translation":[0.6453971862792969,5.788876444101334,-0.2526130676269531],"scale":[5.405176639556885,5.405176639556885,5.405176639556885],"mesh":6},{"name":"Object_9","translation":[1.073243111371994,5.853046357631683,-0.37548089027404785],"scale":[5.4643003940582275,5.4643003940582275,5.4643003940582275],"mesh":7}],"scenes":[{"name":"Sketchfab_Scene","nodes":[0]}],"scene":0,"extensionsUsed":["KHR_materials_unlit","KHR_mesh_quantization","EXT_meshopt_compression"],"extensionsRequired":["KHR_mesh_quantization","EXT_meshopt_compression"]}